<svg xmlns="http://www.w3.org/2000/svg" viewBox="0 0 220 50" width="250" height="80">
	<style>
		tspan { white-space:pre }
	</style>
	<path id="Cafe Durmiente " fill="#d90429" d="M17.33 17.06Q17.33 16.16 16.7 16.16Q16.46 16.16 16.13 16.28Q15.8 16.4 15.5 16.49Q14.39 17.09 13.76 17.81Q13.16 18.5 12.53 19.37Q11.9 20.24 11.45 21.23Q11 22.22 10.76 23.09Q9.89 26.3 11.42 27.41Q12.05 27.86 12.74 27.86Q13.46 27.83 13.88 27.56Q14.33 27.29 14.75 27.05Q15.17 26.81 15.71 26.72Q16.28 26.6 17.09 26.87Q17.93 27.11 17.99 27.53Q18.05 27.95 17.99 28.4Q17.93 28.85 17.96 29.21Q18.02 29.57 18.62 29.66Q19.19 30.38 17.9 31.4Q17.57 31.67 17.27 31.91Q14.69 33.56 11.78 33.74Q9.95 33.86 7.88 33.08Q4.79 31.91 4.4 27.83Q3.89 24.05 5.36 20Q6.59 16.58 9.08 13.67Q11.33 11 13.52 10.19Q16.13 8.84 19.16 9.14Q22.37 9.56 23.36 11.87Q24.35 14.18 23.03 17.42Q22.58 18.56 21.32 19.22Q20.24 19.82 18.98 19.82Q17.72 19.82 17.36 19.04Q17 18.23 17.33 17.06ZM34.79 19.13L34.91 19.16Q34.97 19.16 34.97 19.19Q35.75 18.89 36.26 19.64Q36.59 20.15 36.77 21.2Q36.83 22.64 36.47 25.19Q35.78 30.35 35.72 31.34Q35.78 32.39 34.43 32.78Q33.26 33.14 32.09 32.75Q30.86 32.33 31.07 31.46Q30.83 31.91 30.59 32.12Q30.35 32.3 29.63 32.66Q28.94 32.99 27.65 33.23Q26.36 33.44 25.07 33.35Q23.78 33.23 22.7 32.72Q21.65 32.18 21.29 31.07Q20.6 28.91 21.47 25.58Q22.07 23.39 23.63 21.71Q25.43 19.79 27.71 18.53Q29.42 17.6 31.01 17.42Q31.55 17.36 31.94 17.45Q32.36 17.54 32.81 17.63Q33.29 17.72 33.71 17.9Q34.79 18.35 34.79 19.13ZM29.24 27.08Q29.45 26.66 29.57 26.03Q29.72 25.4 29.96 24.65Q27.53 25.64 26.24 27.08Q24.83 28.67 26.42 29.27Q27.8 29.63 28.43 28.82Q28.7 28.46 28.91 27.92Q29.12 27.38 29.42 26.81Q29.33 26.96 29.24 27.08ZM47.48 18.26Q48.62 17.87 50.96 17.72Q51.5 18.02 51.38 18.95Q51.29 19.88 50.69 20.36Q49.97 21.44 49.16 21.83Q48.71 22.04 48.05 22.22Q47.42 22.37 46.49 22.64Q45.89 24.32 45.14 27.2Q44.42 30.08 44.12 31.04Q43.43 33.26 43.13 33.35Q42.44 34.43 41.6 34.7Q40.79 34.97 40.1 34.73Q39.41 34.46 39.02 33.83Q38.66 33.17 38.87 32.45Q38.78 31.7 39.14 28.25Q39.5 24.8 39.5 24.29Q39.38 24.17 39.2 24.14Q39.02 24.11 38.96 23.99Q38.69 23.9 38.54 23.66Q38.27 23.24 37.97 23.06Q37.43 23.12 37.07 22.76Q36.74 22.37 36.74 21.86Q36.74 21.35 37.1 20.81Q37.46 20.27 38.33 19.97L41.39 19.01Q41.75 16.58 43.67 13.49Q44.12 12.74 44.63 11.9Q45.17 11.03 46.1 10.31Q47.03 9.56 48.02 9.17Q49.04 8.75 50.06 8.66Q51.11 8.57 51.98 8.69Q53.81 8.93 54.41 9.92Q55.13 11.18 55.04 12.2Q54.98 13.19 54.23 13.7Q53.03 14.48 52.19 13.94Q51.86 13.76 51.71 13.34Q51.56 12.92 51.14 13.04Q50.72 13.16 50.18 13.61Q49.64 14.03 49.07 14.69Q48.53 15.35 48.11 16.04Q47.06 17.63 47.48 18.26ZM60.68 27.56Q60.11 27.83 59.57 27.98Q59.03 28.13 58.31 28.28Q56.42 28.67 55.58 28.73Q55.67 29.03 56.48 29.45Q57.02 29.54 57.65 29.3Q58.31 29.03 59 28.82Q59.72 28.58 60.38 28.55Q61.07 28.52 61.67 29.06Q61.91 29.6 62.06 29.69Q62.21 29.78 62.33 29.78Q62.45 29.78 62.6 29.87Q62.75 29.96 63.02 30.56Q63.32 31.16 62.87 31.7Q62.45 32.24 61.55 32.63Q60.65 33.02 59.45 33.26Q58.25 33.5 57.05 33.59Q54.35 33.8 52.94 33.17Q50.9 32.48 50.3 30.44Q49.52 27.74 51.17 24.14Q51.92 22.46 53.54 20.54Q54.95 18.86 56.69 18.11Q58.7 17.24 60.89 17.3Q63.23 17.36 64.13 19.34Q64.58 20.39 64.31 22.28Q63.83 24.74 63.05 25.76Q62.27 26.75 60.68 27.56ZM58.94 22.82Q57.35 22.49 56.45 24.62Q56.18 25.19 56.03 25.82Q57.05 25.94 58.19 24.68Q58.61 24.17 58.82 23.66Q59.03 23.12 58.94 22.82ZM92.69 19.82Q92.57 21.11 92.21 22.46Q91.88 23.81 91.22 25.1Q90.59 26.39 89.69 27.59Q88.82 28.79 87.74 29.81Q86.66 30.83 85.43 31.52Q82.79 33.08 80.33 32.63Q79.79 33.8 78.71 34.13Q77.66 34.43 76.61 34.13Q75.59 33.8 74.81 32.93Q74.03 32.06 74.03 30.56Q74.03 29.03 74.24 27.44Q74.45 25.85 74.81 24.38Q75.38 21.95 76.22 19.82Q78.2 14.99 78.47 13.04Q78.86 10.43 79.91 9.8Q81.65 8.78 83.21 8.93Q84.77 9.08 86.03 9.68Q88.1 10.67 90.5 13.01Q93.14 15.56 92.69 19.82ZM81.02 27.68L80.9 28.82Q82.43 28.04 83.36 27.23Q84.32 26.39 85.16 25.7Q86.45 24.41 87.05 22.64Q88.37 18.74 85.37 16.73Q84.92 16.4 84.02 15.83Q83.6 16.79 83.39 17.84Q83.21 18.89 82.88 19.88L82.07 22.52L81.41 25.37Q81.35 25.97 81.23 26.54Q81.11 27.08 81.02 27.68ZM95.75 18.83Q96.59 18.02 97.61 17.9Q98.66 17.75 99.44 18.11Q100.25 18.47 100.61 19.28Q101 20.06 100.52 21.08Q99.5 22.58 98.9 24.32Q98.3 26.06 97.79 27.83Q100.55 26.09 102.41 22.64Q102.95 21.62 103.58 20.57L104.03 19.73L104.93 18.29Q105.11 17.72 105.56 17.57Q106.01 17.39 106.52 17.39Q107.06 17.39 107.6 17.42Q108.14 17.42 108.59 17.12Q109.04 16.82 109.64 16.91Q110.27 16.97 110.75 17.3Q111.26 17.63 111.5 18.11Q111.77 18.56 111.56 19.01Q110.3 21.71 108.11 29.06Q107.6 30.71 107.15 31.82Q106.4 32.75 105.26 33.08Q104.12 33.41 103.1 33.29Q102.11 33.14 101.51 32.6Q100.91 32.03 101.24 31.19Q100.4 31.88 99.5 32.45Q98.6 33.02 97.31 33.2Q96.05 33.38 94.88 33.11Q93.71 32.81 92.87 32Q92.06 31.19 92 29.84Q91.82 25.1 95.75 18.83ZM113.15 19.58Q113.57 18.5 114.32 17.96Q115.1 17.39 115.79 17.27Q116.51 17.12 116.96 17.42Q117.44 17.72 117.29 18.35Q117.86 17.78 118.94 17.3Q120.02 16.82 120.65 16.64Q121.28 16.46 121.73 16.46Q122.72 16.52 122.3 17.54Q122.81 17.63 123.05 18.2Q123.29 18.77 123.11 19.46Q122.93 20.15 122.3 20.81Q121.67 21.47 120.59 21.71Q119.54 21.95 118.82 22.82Q118.13 23.66 117.59 24.92Q116.69 27.05 115.97 30.95Q115.73 32.36 114.02 33.32Q112.4 34.25 111.05 33.86Q109.52 33.44 109.7 31.61Q109.76 30.32 110.48 28.19Q111.2 26.03 111.59 24.95Q111.98 23.84 112.13 23.27L113.15 19.58ZM126.11 18.95Q126.17 18.38 126.83 18.02Q127.49 17.66 128.3 17.66Q129.11 17.66 129.86 18.05Q130.64 18.41 130.91 19.31Q133.46 17.09 135.56 17.6Q136.28 17.75 136.79 18.44Q138.32 16.97 140.18 16.52Q142.52 16.43 143.54 17.6Q143.69 17.75 143.84 17.93Q144.26 18.38 144.32 18.53Q144.86 19.37 144.62 22.4Q144.29 26.33 143.12 30.29Q142.49 32.3 141.98 32.36Q141.68 32.42 141.41 32.36Q141.17 32.3 140.96 32.3Q140.78 32.27 140.75 32.63Q140.15 33.41 138.92 33.41Q137.72 33.41 136.88 32.66Q135.95 31.88 136.22 30.83Q136.52 29.75 136.88 28.64Q137.24 27.5 137.66 26.3Q138.38 24.2 139.25 21.92Q138.62 22.64 137.54 24.65Q136.46 26.63 136.19 27.02Q135.68 28.04 135.35 28.64Q135.02 29.21 134.45 29.57Q133.91 29.9 133.43 29.99Q132.98 30.08 132.56 30.02Q131.57 29.87 131.15 29.18Q131.06 28.94 130.97 28.7Q130.88 28.46 130.82 28.04Q130.73 27.11 131.06 25.01L131 25.1Q131.36 24.74 131.24 24.92Q130.04 26.63 129.8 27.11Q129.56 27.59 129.29 28.19Q129.02 28.76 128.66 29.54Q128.3 30.29 128.09 30.89Q127.88 31.49 127.58 32.06Q126.23 34.4 122.84 33.95Q122.12 33.86 121.61 33.62Q121.1 33.35 121.19 32.84Q121.43 31.64 122.3 28.85Q124.01 23.33 124.34 21.74Q124.55 21.2 124.7 20.63Q124.88 20.06 125.06 19.64Q125.42 18.65 126.11 18.95ZM136.52 26.36L136.52 26.42Q136.58 26.3 136.52 26.36ZM148.91 19.01Q149.3 18.02 150.77 17.66Q152.15 17.3 153.35 17.75Q154.58 18.23 154.46 19.31Q154.13 20.36 153.62 21.89Q153.14 23.39 152.69 24.98Q151.49 29.06 151.31 30.74Q150.86 33.44 149.81 33.65Q149.51 33.71 149.24 33.74Q148.58 33.77 148.4 34.1Q148.22 34.43 147.8 34.61Q147.38 34.76 146.87 34.76Q146.39 34.73 145.88 34.52Q145.37 34.28 145.01 33.86Q144.17 32.84 144.68 31.13Q145.16 27.86 147.11 22.82Q148.04 20.33 148.91 19.01ZM154.58 14.51Q153.11 14.81 152.18 14.33Q151.28 13.85 151.13 13.19Q150.98 12.5 151.55 11.78Q152.21 10.88 153.53 10.61Q154.13 10.55 154.4 10.55Q154.67 10.55 155.06 10.67Q156.05 10.76 156.35 11.54Q156.77 12.2 156.41 13.04Q156.08 13.88 154.58 14.51ZM165.05 27.56Q164.48 27.83 163.94 27.98Q163.4 28.13 162.68 28.28Q160.79 28.67 159.95 28.73Q160.04 29.03 160.85 29.45Q161.39 29.54 162.02 29.3Q162.68 29.03 163.37 28.82Q164.09 28.58 164.75 28.55Q165.44 28.52 166.04 29.06Q166.28 29.6 166.43 29.69Q166.58 29.78 166.7 29.78Q166.82 29.78 166.97 29.87Q167.12 29.96 167.39 30.56Q167.69 31.16 167.24 31.7Q166.82 32.24 165.92 32.63Q165.02 33.02 163.82 33.26Q162.62 33.5 161.42 33.59Q158.72 33.8 157.31 33.17Q155.27 32.48 154.67 30.44Q153.89 27.74 155.54 24.14Q156.29 22.46 157.91 20.54Q159.32 18.86 161.06 18.11Q163.07 17.24 165.26 17.3Q167.6 17.36 168.5 19.34Q168.95 20.39 168.68 22.28Q168.2 24.74 167.42 25.76Q166.64 26.75 165.05 27.56ZM163.31 22.82Q161.72 22.49 160.82 24.62Q160.55 25.19 160.4 25.82Q161.42 25.94 162.56 24.68Q162.98 24.17 163.19 23.66Q163.4 23.12 163.31 22.82ZM174.05 19.01Q176.06 18.2 176.75 18.98Q177.11 19.4 177.11 20.15L177.11 20.3Q178.22 19.01 180.98 18.14Q183.89 17.24 185.78 17.63Q188.24 18.14 188.54 20.84Q188.78 23.12 187.49 26.63Q187.07 27.53 186.83 28.1Q186.62 28.64 186.44 29.09Q186.05 29.93 185.21 31.1Q184.73 32 183.71 32.48Q182.72 32.96 181.73 33.05Q180.77 33.11 180.14 32.75Q179.51 32.36 179.78 31.55Q180.47 29.69 180.92 28.16Q181.37 26.63 181.85 25.55Q182.3 24.02 181.97 23.63Q181.7 23.33 181.04 23.72Q180.47 24.08 180.23 24.56Q179.69 24.95 178.19 27.68Q177.77 28.43 177.35 29.18Q176.96 29.9 176.6 30.53Q176.27 31.16 176 31.58Q175.76 32 175.55 32.15Q175.37 32.27 175.22 32.33Q175.1 32.36 175.01 32.42Q174.92 32.48 174.86 32.81Q174.74 33.5 173.42 33.83Q171.29 34.37 169.58 33.65Q169.01 33.41 168.68 32.99Q167.99 31.61 171.05 23.6Q172.13 20.78 172.46 20.24Q173.21 19.1 173.42 18.95Q173.66 18.8 174.05 19.01ZM196.73 9.56L196.76 9.44L197.03 9.17Q197.36 8.39 197.75 8.24Q197.96 8.18 198.29 8.09Q198.62 8 199.16 7.64Q199.37 7.22 200.03 7.28Q200.69 7.31 201.32 7.7Q201.98 8.06 202.37 8.72Q202.79 9.38 202.58 10.1Q202.37 10.79 202.22 11.15Q202.1 11.48 201.95 11.78Q201.83 12.08 201.62 12.47Q201.44 12.83 201.14 13.46L200.15 15.53Q200 15.92 199.88 15.98Q199.79 16.04 199.7 16.19Q199.97 16.13 200.15 16.1Q200.33 16.07 200.51 16.04Q200.93 15.98 201.47 15.92Q201.8 15.98 202.04 15.98L202.46 15.98Q202.82 15.98 203.33 16.19Q203.84 16.37 203.99 16.85Q204.14 17.33 204.02 17.84Q203.9 18.32 203.54 18.74Q203.18 19.16 202.61 19.19Q200 19.91 198.89 19.97L198.71 20.18L198.71 20.21Q198.41 20.93 198.05 22.04Q197.72 23.12 197.3 24.41Q196.91 25.67 196.49 27.05Q196.07 28.4 195.62 29.66Q194.18 33.89 193.52 34.25Q193.28 34.37 193.01 34.43Q192.77 34.46 192.74 34.49Q191.69 34.43 191 34.07Q190.31 33.71 190.07 33.38Q189.83 33.05 189.95 32.63Q190.52 27.41 192.23 21.2Q191.63 21.2 191.39 21.32Q190.94 21.56 190.31 21.59L190.28 21.59Q189.8 21.56 189.41 21.14Q189.02 20.72 188.93 20.18Q188.84 19.64 189.11 19.07Q189.38 18.5 190.19 18.17Q191.15 17.9 191.6 17.72Q192.47 17.36 193.04 17.21Q193.64 17.06 193.7 17.03Q193.79 16.97 193.82 16.94Q193.91 16.88 194.27 16.88Q194.45 16.01 194.63 15.11Q194.81 14.21 195.08 13.28Q195.68 11.12 196.73 9.56ZM212.15 27.56Q211.58 27.83 211.04 27.98Q210.5 28.13 209.78 28.28Q207.89 28.67 207.05 28.73Q207.14 29.03 207.95 29.45Q208.49 29.54 209.12 29.3Q209.78 29.03 210.47 28.82Q211.19 28.58 211.85 28.55Q212.54 28.52 213.14 29.06Q213.38 29.6 213.53 29.69Q213.68 29.78 213.8 29.78Q213.92 29.78 214.07 29.87Q214.22 29.96 214.49 30.56Q214.79 31.16 214.34 31.7Q213.92 32.24 213.02 32.63Q212.12 33.02 210.92 33.26Q209.72 33.5 208.52 33.59Q205.82 33.8 204.41 33.17Q202.37 32.48 201.77 30.44Q200.99 27.74 202.64 24.14Q203.39 22.46 205.01 20.54Q206.42 18.86 208.16 18.11Q210.17 17.24 212.36 17.3Q214.7 17.36 215.6 19.34Q216.05 20.39 215.78 22.28Q215.3 24.74 214.52 25.76Q213.74 26.75 212.15 27.56ZM210.41 22.82Q208.82 22.49 207.92 24.62Q207.65 25.19 207.5 25.82Q208.52 25.94 209.66 24.68Q210.08 24.17 210.29 23.66Q210.5 23.12 210.41 22.82Z" />
</svg>